<?xml version="1.0" encoding="utf-8" standalone="no"?>
<!DOCTYPE svg PUBLIC "-//W3C//DTD SVG 1.1//EN"
  "http://www.w3.org/Graphics/SVG/1.1/DTD/svg11.dtd">
<!-- Created with matplotlib (https://matplotlib.org/) -->
<svg height="144.648pt" version="1.1" viewBox="0 0 245.9016 144.648" width="245.9016pt" xmlns="http://www.w3.org/2000/svg" xmlns:xlink="http://www.w3.org/1999/xlink">
 <defs>
  <style type="text/css">
*{stroke-linecap:butt;stroke-linejoin:round;}
  </style>
 </defs>
 <g id="figure_1">
  <g id="patch_1">
   <path d="M 0 144.648 
L 245.9016 144.648 
L 245.9016 0 
L 0 0 
z
" style="fill:none;"/>
  </g>
  <g id="axes_1">
   <g id="patch_2">
    <path d="M 24.59016 108.486 
L 221.31144 108.486 
L 221.31144 5.207328 
L 24.59016 5.207328 
z
" style="fill:none;"/>
   </g>
   <g id="line2d_1">
    <path clip-path="url(#p8c88d5c8a8)" d="M 46.201794 103.785535 
L 46.201794 25.950349 
" style="fill:none;stroke:#cccccc;stroke-linecap:square;stroke-width:1.5;"/>
   </g>
   <g id="line2d_2">
    <path clip-path="url(#p8c88d5c8a8)" d="M 87.185394 91.662528 
L 87.185394 25.167372 
" style="fill:none;stroke:#cccccc;stroke-linecap:square;stroke-width:1.5;"/>
   </g>
   <g id="line2d_3">
    <path clip-path="url(#p8c88d5c8a8)" d="M 128.168994 87.474771 
L 128.168994 25.167372 
" style="fill:none;stroke:#cccccc;stroke-linecap:square;stroke-width:1.5;"/>
   </g>
   <g id="line2d_4">
    <path clip-path="url(#p8c88d5c8a8)" d="M 169.152594 69.949215 
L 169.152594 25.167372 
" style="fill:none;stroke:#cccccc;stroke-linecap:square;stroke-width:1.5;"/>
   </g>
   <g id="line2d_5">
    <path clip-path="url(#p8c88d5c8a8)" d="M 199.699806 67.09944 
L 199.699806 47.292166 
" style="fill:none;stroke:#cccccc;stroke-linecap:square;stroke-width:1.5;"/>
   </g>
   <g id="line2d_6">
    <path clip-path="url(#p8c88d5c8a8)" d="M 158.716206 74.573705 
L 158.716206 48.075143 
" style="fill:none;stroke:#cccccc;stroke-linecap:square;stroke-width:1.5;"/>
   </g>
   <g id="line2d_7">
    <path clip-path="url(#p8c88d5c8a8)" d="M 117.732606 89.983222 
L 117.732606 48.075143 
" style="fill:none;stroke:#cccccc;stroke-linecap:square;stroke-width:1.5;"/>
   </g>
   <g id="line2d_8">
    <path clip-path="url(#p8c88d5c8a8)" d="M 76.749006 92.054939 
L 76.749006 48.075143 
" style="fill:none;stroke:#cccccc;stroke-linecap:square;stroke-width:1.5;"/>
   </g>
   <g id="PolyCollection_1">
    <path clip-path="url(#p8c88d5c8a8)" d="M 41.639338 108.486 
L 41.639338 107.84455 
L 41.967206 107.5297 
L 42.295075 107.218748 
L 42.622944 106.911677 
L 42.950813 106.608473 
L 43.278682 106.30912 
L 43.60655 106.013603 
L 43.934419 105.721905 
L 44.262288 105.434009 
L 44.590157 105.1499 
L 44.918026 104.869559 
L 45.245894 104.59297 
L 45.573763 104.320115 
L 45.901632 104.050976 
L 46.229501 103.785535 
L 46.55737 103.523774 
L 46.885238 103.265674 
L 47.213107 103.011216 
L 47.540976 102.76038 
L 47.868845 102.513148 
L 48.196714 102.2695 
L 48.524582 102.029416 
L 48.852451 101.792875 
L 49.18032 101.559857 
L 49.508189 101.330341 
L 49.836058 101.104307 
L 50.163926 100.881734 
L 50.491795 100.662599 
L 50.819664 100.446882 
L 51.147533 100.23456 
L 51.475402 100.025611 
L 51.80327 99.820014 
L 52.131139 99.617746 
L 52.459008 99.418783 
L 52.786877 99.223104 
L 53.114746 99.030684 
L 53.442614 98.841501 
L 53.770483 98.655531 
L 54.098352 98.47275 
L 54.426221 98.293135 
L 54.75409 98.116661 
L 55.081958 97.943305 
L 55.409827 97.77304 
L 55.737696 97.605844 
L 56.065565 97.441691 
L 56.393434 97.280556 
L 56.721302 97.122413 
L 57.049171 96.967238 
L 57.37704 96.815006 
L 57.704909 96.665689 
L 58.032778 96.519263 
L 58.360646 96.375702 
L 58.688515 96.234979 
L 59.016384 96.097068 
L 59.344253 95.961943 
L 59.672122 95.829578 
L 59.99999 95.699944 
L 60.327859 95.573016 
L 60.655728 95.448767 
L 60.983597 95.32717 
L 61.311466 95.208197 
L 61.639334 95.091821 
L 61.967203 94.978015 
L 62.295072 94.86675 
L 62.622941 94.758 
L 62.95081 94.651737 
L 63.278678 94.547932 
L 63.606547 94.446558 
L 63.934416 94.347587 
L 64.262285 94.25099 
L 64.590154 94.15674 
L 64.918022 94.064807 
L 65.245891 93.975164 
L 65.57376 93.887782 
L 65.901629 93.802632 
L 66.229498 93.719686 
L 66.557366 93.638915 
L 66.885235 93.56029 
L 67.213104 93.483782 
L 67.540973 93.409363 
L 67.868842 93.337003 
L 68.19671 93.266673 
L 68.524579 93.198345 
L 68.852448 93.13199 
L 69.180317 93.067577 
L 69.508186 93.005078 
L 69.836054 92.944464 
L 70.163923 92.885705 
L 70.491792 92.828772 
L 70.819661 92.773636 
L 71.14753 92.720268 
L 71.475398 92.668637 
L 71.803267 92.618715 
L 72.131136 92.570473 
L 72.459005 92.52388 
L 72.786874 92.478907 
L 73.114742 92.435526 
L 73.442611 92.393707 
L 73.77048 92.353419 
L 74.098349 92.314635 
L 74.426218 92.277324 
L 74.754086 92.241457 
L 75.081955 92.207005 
L 75.409824 92.173938 
L 75.737693 92.142227 
L 76.065562 92.111844 
L 76.39343 92.082757 
L 76.721299 92.054939 
L 77.049168 92.02836 
L 77.377037 92.002992 
L 77.704906 91.978804 
L 78.032774 91.955768 
L 78.360643 91.933855 
L 78.688512 91.913035 
L 79.016381 91.893281 
L 79.34425 91.874563 
L 79.672118 91.856852 
L 79.999987 91.84012 
L 80.327856 91.824338 
L 80.655725 91.809478 
L 80.983594 91.79551 
L 81.311462 91.782407 
L 81.639331 91.77014 
L 81.9672 91.758681 
L 82.295069 91.748002 
L 82.622938 91.738074 
L 82.950806 91.728871 
L 83.278675 91.720363 
L 83.606544 91.712523 
L 83.934413 91.705323 
L 84.262282 91.698736 
L 84.59015 91.692734 
L 84.918019 91.68729 
L 85.245888 91.682377 
L 85.573757 91.677967 
L 85.901626 91.674034 
L 86.229494 91.67055 
L 86.557363 91.667488 
L 86.885232 91.664823 
L 87.213101 91.662528 
L 87.54097 91.660575 
L 87.868838 91.65894 
L 88.196707 91.657595 
L 88.524576 91.656515 
L 88.852445 91.655674 
L 89.180314 91.655046 
L 89.508182 91.654606 
L 89.836051 91.654328 
L 90.16392 91.654188 
L 90.491789 91.654159 
L 90.819658 91.654218 
L 91.147526 91.654338 
L 91.475395 91.654497 
L 91.803264 91.654669 
L 92.131133 91.65483 
L 92.459002 91.654956 
L 92.78687 91.655023 
L 93.114739 91.655008 
L 93.442608 91.654886 
L 93.770477 91.654635 
L 94.098346 91.654231 
L 94.426214 91.653651 
L 94.754083 91.652872 
L 95.081952 91.651873 
L 95.409821 91.65063 
L 95.73769 91.64912 
L 96.065558 91.647323 
L 96.393427 91.645217 
L 96.721296 91.642779 
L 97.049165 91.639988 
L 97.377034 91.636823 
L 97.704902 91.633263 
L 98.032771 91.629287 
L 98.36064 91.624875 
L 98.688509 91.620006 
L 99.016378 91.614661 
L 99.344246 91.608818 
L 99.672115 91.602459 
L 99.999984 91.595563 
L 100.327853 91.588113 
L 100.655722 91.580088 
L 100.98359 91.57147 
L 101.311459 91.56224 
L 101.639328 91.55238 
L 101.967197 91.541872 
L 102.295066 91.530698 
L 102.622934 91.51884 
L 102.950803 91.506281 
L 103.278672 91.493004 
L 103.606541 91.478991 
L 103.93441 91.464227 
L 104.262278 91.448695 
L 104.590147 91.432378 
L 104.918016 91.415261 
L 105.245885 91.397328 
L 105.573754 91.378564 
L 105.901622 91.358953 
L 106.229491 91.338481 
L 106.55736 91.317132 
L 106.885229 91.294894 
L 107.213098 91.27175 
L 107.540966 91.247689 
L 107.868835 91.222695 
L 108.196704 91.196756 
L 108.524573 91.169859 
L 108.852442 91.14199 
L 109.18031 91.113138 
L 109.508179 91.083289 
L 109.836048 91.052433 
L 110.163917 91.020557 
L 110.491786 90.987651 
L 110.819654 90.953701 
L 111.147523 90.918699 
L 111.475392 90.882633 
L 111.803261 90.845493 
L 112.13113 90.807269 
L 112.458998 90.767951 
L 112.786867 90.727529 
L 113.114736 90.685995 
L 113.442605 90.64334 
L 113.770474 90.599554 
L 114.098342 90.55463 
L 114.426211 90.508559 
L 114.75408 90.461334 
L 115.081949 90.412947 
L 115.409818 90.363391 
L 115.737686 90.31266 
L 116.065555 90.260745 
L 116.393424 90.207642 
L 116.721293 90.153343 
L 117.049162 90.097844 
L 117.37703 90.041139 
L 117.704899 89.983222 
L 118.032768 89.924089 
L 118.360637 89.863735 
L 118.688506 89.802156 
L 119.016374 89.739348 
L 119.344243 89.675307 
L 119.672112 89.61003 
L 119.999981 89.543514 
L 120.32785 89.475755 
L 120.655718 89.406752 
L 120.983587 89.336501 
L 121.311456 89.265002 
L 121.639325 89.192253 
L 121.967194 89.118251 
L 122.295062 89.042997 
L 122.622931 88.966489 
L 122.9508 88.888727 
L 123.278669 88.809711 
L 123.606538 88.729441 
L 123.934406 88.647917 
L 124.262275 88.56514 
L 124.590144 88.481111 
L 124.918013 88.395832 
L 125.245882 88.309305 
L 125.57375 88.22153 
L 125.901619 88.13251 
L 126.229488 88.042249 
L 126.557357 87.950747 
L 126.885226 87.85801 
L 127.213094 87.76404 
L 127.540963 87.668841 
L 127.868832 87.572416 
L 128.196701 87.474771 
L 128.52457 87.37591 
L 128.852438 87.275837 
L 129.180307 87.174558 
L 129.508176 87.072078 
L 129.836045 86.968403 
L 130.163914 86.86354 
L 130.491782 86.757493 
L 130.819651 86.650271 
L 131.14752 86.54188 
L 131.475389 86.432327 
L 131.803258 86.321619 
L 132.131126 86.209765 
L 132.458995 86.096772 
L 132.786864 85.98265 
L 133.114733 85.867406 
L 133.442602 85.751049 
L 133.77047 85.633589 
L 134.098339 85.515035 
L 134.426208 85.395397 
L 134.754077 85.274685 
L 135.081946 85.152909 
L 135.409814 85.03008 
L 135.737683 84.906208 
L 136.065552 84.781306 
L 136.393421 84.655384 
L 136.72129 84.528454 
L 137.049158 84.400528 
L 137.377027 84.271618 
L 137.704896 84.141738 
L 138.032765 84.010899 
L 138.360634 83.879114 
L 138.688502 83.746398 
L 139.016371 83.612763 
L 139.34424 83.478223 
L 139.672109 83.342793 
L 139.999978 83.206487 
L 140.327846 83.06932 
L 140.655715 82.931306 
L 140.983584 82.792461 
L 141.311453 82.6528 
L 141.639322 82.512338 
L 141.96719 82.371092 
L 142.295059 82.229078 
L 142.622928 82.086313 
L 142.950797 81.942812 
L 143.278666 81.798592 
L 143.606534 81.653672 
L 143.934403 81.508068 
L 144.262272 81.361798 
L 144.590141 81.21488 
L 144.91801 81.067331 
L 145.245878 80.919171 
L 145.573747 80.770418 
L 145.901616 80.621091 
L 146.229485 80.471208 
L 146.557354 80.320789 
L 146.885222 80.169853 
L 147.213091 80.018421 
L 147.54096 79.866511 
L 147.868829 79.714145 
L 148.196698 79.561343 
L 148.524566 79.408124 
L 148.852435 79.254511 
L 149.180304 79.100524 
L 149.508173 78.946184 
L 149.836042 78.791512 
L 150.16391 78.636531 
L 150.491779 78.481262 
L 150.819648 78.325727 
L 151.147517 78.169949 
L 151.475386 78.013949 
L 151.803254 77.85775 
L 152.131123 77.701376 
L 152.458992 77.544849 
L 152.786861 77.388193 
L 153.11473 77.23143 
L 153.442598 77.074585 
L 153.770467 76.917681 
L 154.098336 76.760742 
L 154.426205 76.603791 
L 154.754074 76.446855 
L 155.081942 76.289955 
L 155.409811 76.133119 
L 155.73768 75.976369 
L 156.065549 75.819732 
L 156.393418 75.663231 
L 156.721286 75.506893 
L 157.049155 75.350743 
L 157.377024 75.194805 
L 157.704893 75.039107 
L 158.032762 74.883674 
L 158.36063 74.728531 
L 158.688499 74.573705 
L 159.016368 74.419223 
L 159.344237 74.26511 
L 159.672106 74.111393 
L 159.999974 73.958099 
L 160.327843 73.805254 
L 160.655712 73.652886 
L 160.983581 73.501021 
L 161.31145 73.349687 
L 161.639318 73.19891 
L 161.967187 73.048719 
L 162.295056 72.899141 
L 162.622925 72.750202 
L 162.950794 72.601932 
L 163.278662 72.454358 
L 163.606531 72.307507 
L 163.9344 72.161408 
L 164.262269 72.016089 
L 164.590138 71.871578 
L 164.918006 71.727902 
L 165.245875 71.585092 
L 165.573744 71.443174 
L 165.901613 71.302178 
L 166.229482 71.162132 
L 166.55735 71.023064 
L 166.885219 70.885004 
L 167.213088 70.74798 
L 167.540957 70.612022 
L 167.868826 70.477157 
L 168.196694 70.343414 
L 168.524563 70.210824 
L 168.852432 70.079415 
L 169.180301 69.949215 
L 169.50817 69.820255 
L 169.836038 69.692563 
L 170.163907 69.566169 
L 170.491776 69.441101 
L 170.819645 69.31739 
L 171.147514 69.195064 
L 171.475382 69.074153 
L 171.803251 68.954685 
L 172.13112 68.836692 
L 172.458989 68.720201 
L 172.786858 68.605242 
L 173.114726 68.491845 
L 173.442595 68.380039 
L 173.770464 68.269854 
L 174.098333 68.161318 
L 174.426202 68.054462 
L 174.75407 67.949314 
L 175.081939 67.845905 
L 175.409808 67.744263 
L 175.737677 67.644417 
L 176.065546 67.546398 
L 176.393414 67.450234 
L 176.721283 67.355955 
L 177.049152 67.263589 
L 177.377021 67.173167 
L 177.70489 67.084717 
L 178.032758 66.998268 
L 178.360627 66.91385 
L 178.688496 66.831491 
L 179.016365 66.75122 
L 179.344234 66.673067 
L 179.672102 66.59706 
L 179.999971 66.523228 
L 180.32784 66.4516 
L 180.655709 66.382204 
L 180.983578 66.315069 
L 181.311446 66.250223 
L 181.639315 66.187695 
L 181.967184 66.127514 
L 182.295053 66.069707 
L 182.622922 66.014303 
L 182.95079 65.961329 
L 183.278659 65.910814 
L 183.606528 65.862786 
L 183.934397 65.817272 
L 184.262266 65.774301 
L 184.590134 65.733898 
L 184.918003 65.696093 
L 185.245872 65.660912 
L 185.573741 65.628383 
L 185.90161 65.598533 
L 186.229478 65.571388 
L 186.557347 65.546976 
L 186.885216 65.525322 
L 187.213085 65.506455 
L 187.540954 65.4904 
L 187.868822 65.477183 
L 188.196691 65.466831 
L 188.52456 65.459369 
L 188.852429 65.454823 
L 189.180298 65.45322 
L 189.508166 65.454584 
L 189.836035 65.458941 
L 190.163904 65.466316 
L 190.491773 65.476734 
L 190.819642 65.490221 
L 191.14751 65.506799 
L 191.475379 65.526495 
L 191.803248 65.549332 
L 192.131117 65.575334 
L 192.458986 65.604526 
L 192.786854 65.636931 
L 193.114723 65.672572 
L 193.442592 65.711473 
L 193.770461 65.753658 
L 194.09833 65.799148 
L 194.426198 65.847967 
L 194.754067 65.900137 
L 195.081936 65.955681 
L 195.409805 66.01462 
L 195.737674 66.076977 
L 196.065542 66.142772 
L 196.393411 66.212028 
L 196.72128 66.284765 
L 197.049149 66.361005 
L 197.377018 66.440768 
L 197.704886 66.524074 
L 198.032755 66.610944 
L 198.360624 66.701398 
L 198.688493 66.795455 
L 199.016362 66.893135 
L 199.34423 66.994457 
L 199.672099 67.09944 
L 199.999968 67.208103 
L 200.327837 67.320464 
L 200.655706 67.43654 
L 200.983574 67.556351 
L 201.311443 67.679914 
L 201.639312 67.807245 
L 201.967181 67.938362 
L 202.29505 68.073282 
L 202.622918 68.212021 
L 202.950787 68.354596 
L 203.278656 68.501022 
L 203.606525 68.651314 
L 203.934394 68.805489 
L 204.262262 68.963561 
L 204.590131 69.125544 
L 204.918 69.291454 
L 204.918 108.486 
L 204.918 108.486 
L 204.590131 108.486 
L 204.262262 108.486 
L 203.934394 108.486 
L 203.606525 108.486 
L 203.278656 108.486 
L 202.950787 108.486 
L 202.622918 108.486 
L 202.29505 108.486 
L 201.967181 108.486 
L 201.639312 108.486 
L 201.311443 108.486 
L 200.983574 108.486 
L 200.655706 108.486 
L 200.327837 108.486 
L 199.999968 108.486 
L 199.672099 108.486 
L 199.34423 108.486 
L 199.016362 108.486 
L 198.688493 108.486 
L 198.360624 108.486 
L 198.032755 108.486 
L 197.704886 108.486 
L 197.377018 108.486 
L 197.049149 108.486 
L 196.72128 108.486 
L 196.393411 108.486 
L 196.065542 108.486 
L 195.737674 108.486 
L 195.409805 108.486 
L 195.081936 108.486 
L 194.754067 108.486 
L 194.426198 108.486 
L 194.09833 108.486 
L 193.770461 108.486 
L 193.442592 108.486 
L 193.114723 108.486 
L 192.786854 108.486 
L 192.458986 108.486 
L 192.131117 108.486 
L 191.803248 108.486 
L 191.475379 108.486 
L 191.14751 108.486 
L 190.819642 108.486 
L 190.491773 108.486 
L 190.163904 108.486 
L 189.836035 108.486 
L 189.508166 108.486 
L 189.180298 108.486 
L 188.852429 108.486 
L 188.52456 108.486 
L 188.196691 108.486 
L 187.868822 108.486 
L 187.540954 108.486 
L 187.213085 108.486 
L 186.885216 108.486 
L 186.557347 108.486 
L 186.229478 108.486 
L 185.90161 108.486 
L 185.573741 108.486 
L 185.245872 108.486 
L 184.918003 108.486 
L 184.590134 108.486 
L 184.262266 108.486 
L 183.934397 108.486 
L 183.606528 108.486 
L 183.278659 108.486 
L 182.95079 108.486 
L 182.622922 108.486 
L 182.295053 108.486 
L 181.967184 108.486 
L 181.639315 108.486 
L 181.311446 108.486 
L 180.983578 108.486 
L 180.655709 108.486 
L 180.32784 108.486 
L 179.999971 108.486 
L 179.672102 108.486 
L 179.344234 108.486 
L 179.016365 108.486 
L 178.688496 108.486 
L 178.360627 108.486 
L 178.032758 108.486 
L 177.70489 108.486 
L 177.377021 108.486 
L 177.049152 108.486 
L 176.721283 108.486 
L 176.393414 108.486 
L 176.065546 108.486 
L 175.737677 108.486 
L 175.409808 108.486 
L 175.081939 108.486 
L 174.75407 108.486 
L 174.426202 108.486 
L 174.098333 108.486 
L 173.770464 108.486 
L 173.442595 108.486 
L 173.114726 108.486 
L 172.786858 108.486 
L 172.458989 108.486 
L 172.13112 108.486 
L 171.803251 108.486 
L 171.475382 108.486 
L 171.147514 108.486 
L 170.819645 108.486 
L 170.491776 108.486 
L 170.163907 108.486 
L 169.836038 108.486 
L 169.50817 108.486 
L 169.180301 108.486 
L 168.852432 108.486 
L 168.524563 108.486 
L 168.196694 108.486 
L 167.868826 108.486 
L 167.540957 108.486 
L 167.213088 108.486 
L 166.885219 108.486 
L 166.55735 108.486 
L 166.229482 108.486 
L 165.901613 108.486 
L 165.573744 108.486 
L 165.245875 108.486 
L 164.918006 108.486 
L 164.590138 108.486 
L 164.262269 108.486 
L 163.9344 108.486 
L 163.606531 108.486 
L 163.278662 108.486 
L 162.950794 108.486 
L 162.622925 108.486 
L 162.295056 108.486 
L 161.967187 108.486 
L 161.639318 108.486 
L 161.31145 108.486 
L 160.983581 108.486 
L 160.655712 108.486 
L 160.327843 108.486 
L 159.999974 108.486 
L 159.672106 108.486 
L 159.344237 108.486 
L 159.016368 108.486 
L 158.688499 108.486 
L 158.36063 108.486 
L 158.032762 108.486 
L 157.704893 108.486 
L 157.377024 108.486 
L 157.049155 108.486 
L 156.721286 108.486 
L 156.393418 108.486 
L 156.065549 108.486 
L 155.73768 108.486 
L 155.409811 108.486 
L 155.081942 108.486 
L 154.754074 108.486 
L 154.426205 108.486 
L 154.098336 108.486 
L 153.770467 108.486 
L 153.442598 108.486 
L 153.11473 108.486 
L 152.786861 108.486 
L 152.458992 108.486 
L 152.131123 108.486 
L 151.803254 108.486 
L 151.475386 108.486 
L 151.147517 108.486 
L 150.819648 108.486 
L 150.491779 108.486 
L 150.16391 108.486 
L 149.836042 108.486 
L 149.508173 108.486 
L 149.180304 108.486 
L 148.852435 108.486 
L 148.524566 108.486 
L 148.196698 108.486 
L 147.868829 108.486 
L 147.54096 108.486 
L 147.213091 108.486 
L 146.885222 108.486 
L 146.557354 108.486 
L 146.229485 108.486 
L 145.901616 108.486 
L 145.573747 108.486 
L 145.245878 108.486 
L 144.91801 108.486 
L 144.590141 108.486 
L 144.262272 108.486 
L 143.934403 108.486 
L 143.606534 108.486 
L 143.278666 108.486 
L 142.950797 108.486 
L 142.622928 108.486 
L 142.295059 108.486 
L 141.96719 108.486 
L 141.639322 108.486 
L 141.311453 108.486 
L 140.983584 108.486 
L 140.655715 108.486 
L 140.327846 108.486 
L 139.999978 108.486 
L 139.672109 108.486 
L 139.34424 108.486 
L 139.016371 108.486 
L 138.688502 108.486 
L 138.360634 108.486 
L 138.032765 108.486 
L 137.704896 108.486 
L 137.377027 108.486 
L 137.049158 108.486 
L 136.72129 108.486 
L 136.393421 108.486 
L 136.065552 108.486 
L 135.737683 108.486 
L 135.409814 108.486 
L 135.081946 108.486 
L 134.754077 108.486 
L 134.426208 108.486 
L 134.098339 108.486 
L 133.77047 108.486 
L 133.442602 108.486 
L 133.114733 108.486 
L 132.786864 108.486 
L 132.458995 108.486 
L 132.131126 108.486 
L 131.803258 108.486 
L 131.475389 108.486 
L 131.14752 108.486 
L 130.819651 108.486 
L 130.491782 108.486 
L 130.163914 108.486 
L 129.836045 108.486 
L 129.508176 108.486 
L 129.180307 108.486 
L 128.852438 108.486 
L 128.52457 108.486 
L 128.196701 108.486 
L 127.868832 108.486 
L 127.540963 108.486 
L 127.213094 108.486 
L 126.885226 108.486 
L 126.557357 108.486 
L 126.229488 108.486 
L 125.901619 108.486 
L 125.57375 108.486 
L 125.245882 108.486 
L 124.918013 108.486 
L 124.590144 108.486 
L 124.262275 108.486 
L 123.934406 108.486 
L 123.606538 108.486 
L 123.278669 108.486 
L 122.9508 108.486 
L 122.622931 108.486 
L 122.295062 108.486 
L 121.967194 108.486 
L 121.639325 108.486 
L 121.311456 108.486 
L 120.983587 108.486 
L 120.655718 108.486 
L 120.32785 108.486 
L 119.999981 108.486 
L 119.672112 108.486 
L 119.344243 108.486 
L 119.016374 108.486 
L 118.688506 108.486 
L 118.360637 108.486 
L 118.032768 108.486 
L 117.704899 108.486 
L 117.37703 108.486 
L 117.049162 108.486 
L 116.721293 108.486 
L 116.393424 108.486 
L 116.065555 108.486 
L 115.737686 108.486 
L 115.409818 108.486 
L 115.081949 108.486 
L 114.75408 108.486 
L 114.426211 108.486 
L 114.098342 108.486 
L 113.770474 108.486 
L 113.442605 108.486 
L 113.114736 108.486 
L 112.786867 108.486 
L 112.458998 108.486 
L 112.13113 108.486 
L 111.803261 108.486 
L 111.475392 108.486 
L 111.147523 108.486 
L 110.819654 108.486 
L 110.491786 108.486 
L 110.163917 108.486 
L 109.836048 108.486 
L 109.508179 108.486 
L 109.18031 108.486 
L 108.852442 108.486 
L 108.524573 108.486 
L 108.196704 108.486 
L 107.868835 108.486 
L 107.540966 108.486 
L 107.213098 108.486 
L 106.885229 108.486 
L 106.55736 108.486 
L 106.229491 108.486 
L 105.901622 108.486 
L 105.573754 108.486 
L 105.245885 108.486 
L 104.918016 108.486 
L 104.590147 108.486 
L 104.262278 108.486 
L 103.93441 108.486 
L 103.606541 108.486 
L 103.278672 108.486 
L 102.950803 108.486 
L 102.622934 108.486 
L 102.295066 108.486 
L 101.967197 108.486 
L 101.639328 108.486 
L 101.311459 108.486 
L 100.98359 108.486 
L 100.655722 108.486 
L 100.327853 108.486 
L 99.999984 108.486 
L 99.672115 108.486 
L 99.344246 108.486 
L 99.016378 108.486 
L 98.688509 108.486 
L 98.36064 108.486 
L 98.032771 108.486 
L 97.704902 108.486 
L 97.377034 108.486 
L 97.049165 108.486 
L 96.721296 108.486 
L 96.393427 108.486 
L 96.065558 108.486 
L 95.73769 108.486 
L 95.409821 108.486 
L 95.081952 108.486 
L 94.754083 108.486 
L 94.426214 108.486 
L 94.098346 108.486 
L 93.770477 108.486 
L 93.442608 108.486 
L 93.114739 108.486 
L 92.78687 108.486 
L 92.459002 108.486 
L 92.131133 108.486 
L 91.803264 108.486 
L 91.475395 108.486 
L 91.147526 108.486 
L 90.819658 108.486 
L 90.491789 108.486 
L 90.16392 108.486 
L 89.836051 108.486 
L 89.508182 108.486 
L 89.180314 108.486 
L 88.852445 108.486 
L 88.524576 108.486 
L 88.196707 108.486 
L 87.868838 108.486 
L 87.54097 108.486 
L 87.213101 108.486 
L 86.885232 108.486 
L 86.557363 108.486 
L 86.229494 108.486 
L 85.901626 108.486 
L 85.573757 108.486 
L 85.245888 108.486 
L 84.918019 108.486 
L 84.59015 108.486 
L 84.262282 108.486 
L 83.934413 108.486 
L 83.606544 108.486 
L 83.278675 108.486 
L 82.950806 108.486 
L 82.622938 108.486 
L 82.295069 108.486 
L 81.9672 108.486 
L 81.639331 108.486 
L 81.311462 108.486 
L 80.983594 108.486 
L 80.655725 108.486 
L 80.327856 108.486 
L 79.999987 108.486 
L 79.672118 108.486 
L 79.34425 108.486 
L 79.016381 108.486 
L 78.688512 108.486 
L 78.360643 108.486 
L 78.032774 108.486 
L 77.704906 108.486 
L 77.377037 108.486 
L 77.049168 108.486 
L 76.721299 108.486 
L 76.39343 108.486 
L 76.065562 108.486 
L 75.737693 108.486 
L 75.409824 108.486 
L 75.081955 108.486 
L 74.754086 108.486 
L 74.426218 108.486 
L 74.098349 108.486 
L 73.77048 108.486 
L 73.442611 108.486 
L 73.114742 108.486 
L 72.786874 108.486 
L 72.459005 108.486 
L 72.131136 108.486 
L 71.803267 108.486 
L 71.475398 108.486 
L 71.14753 108.486 
L 70.819661 108.486 
L 70.491792 108.486 
L 70.163923 108.486 
L 69.836054 108.486 
L 69.508186 108.486 
L 69.180317 108.486 
L 68.852448 108.486 
L 68.524579 108.486 
L 68.19671 108.486 
L 67.868842 108.486 
L 67.540973 108.486 
L 67.213104 108.486 
L 66.885235 108.486 
L 66.557366 108.486 
L 66.229498 108.486 
L 65.901629 108.486 
L 65.57376 108.486 
L 65.245891 108.486 
L 64.918022 108.486 
L 64.590154 108.486 
L 64.262285 108.486 
L 63.934416 108.486 
L 63.606547 108.486 
L 63.278678 108.486 
L 62.95081 108.486 
L 62.622941 108.486 
L 62.295072 108.486 
L 61.967203 108.486 
L 61.639334 108.486 
L 61.311466 108.486 
L 60.983597 108.486 
L 60.655728 108.486 
L 60.327859 108.486 
L 59.99999 108.486 
L 59.672122 108.486 
L 59.344253 108.486 
L 59.016384 108.486 
L 58.688515 108.486 
L 58.360646 108.486 
L 58.032778 108.486 
L 57.704909 108.486 
L 57.37704 108.486 
L 57.049171 108.486 
L 56.721302 108.486 
L 56.393434 108.486 
L 56.065565 108.486 
L 55.737696 108.486 
L 55.409827 108.486 
L 55.081958 108.486 
L 54.75409 108.486 
L 54.426221 108.486 
L 54.098352 108.486 
L 53.770483 108.486 
L 53.442614 108.486 
L 53.114746 108.486 
L 52.786877 108.486 
L 52.459008 108.486 
L 52.131139 108.486 
L 51.80327 108.486 
L 51.475402 108.486 
L 51.147533 108.486 
L 50.819664 108.486 
L 50.491795 108.486 
L 50.163926 108.486 
L 49.836058 108.486 
L 49.508189 108.486 
L 49.18032 108.486 
L 48.852451 108.486 
L 48.524582 108.486 
L 48.196714 108.486 
L 47.868845 108.486 
L 47.540976 108.486 
L 47.213107 108.486 
L 46.885238 108.486 
L 46.55737 108.486 
L 46.229501 108.486 
L 45.901632 108.486 
L 45.573763 108.486 
L 45.245894 108.486 
L 44.918026 108.486 
L 44.590157 108.486 
L 44.262288 108.486 
L 43.934419 108.486 
L 43.60655 108.486 
L 43.278682 108.486 
L 42.950813 108.486 
L 42.622944 108.486 
L 42.295075 108.486 
L 41.967206 108.486 
L 41.639338 108.486 
z
" style="fill:#0069b4;"/>
   </g>
   <g id="patch_3">
    <path clip-path="url(#p8c88d5c8a8)" d="M 51.498703 34.552101 
C 51.040225 34.14291 50.455887 33.864151 49.81996 33.751255 
C 49.184033 33.638359 48.524651 33.696321 47.92562 33.917774 
C 47.32659 34.139227 46.814414 34.514373 46.454191 34.995532 
C 46.093967 35.47669 45.901632 36.042573 45.901632 36.621257 
C 45.901632 37.199942 46.093967 37.765825 46.454191 38.246983 
C 46.814414 38.728141 47.32659 39.103288 47.92562 39.324741 
C 48.524651 39.546193 49.184033 39.604155 49.81996 39.49126 
C 50.455887 39.378364 51.040225 39.099605 51.498703 38.690414 
" style="fill:none;stroke:#ff0000;stroke-linecap:round;stroke-linejoin:miter;"/>
   </g>
   <g id="patch_4">
    <path clip-path="url(#p8c88d5c8a8)" d="M 51.730541 34.759017 
L 51.583561 34.269449 
L 51.182006 34.627837 
z
" style="fill:#ff0000;stroke:#ff0000;stroke-linejoin:miter;stroke-width:2;"/>
   </g>
   <g id="patch_5">
    <path clip-path="url(#p8c88d5c8a8)" d="M 194.402897 38.690414 
C 194.861375 39.099605 195.445713 39.378364 196.08164 39.49126 
C 196.717567 39.604155 197.376949 39.546193 197.97598 39.324741 
C 198.57501 39.103288 199.087186 38.728141 199.447409 38.246983 
C 199.807633 37.765825 199.999968 37.199942 199.999968 36.621257 
C 199.999968 36.042573 199.807633 35.47669 199.447409 34.995532 
C 199.087186 34.514373 198.57501 34.139227 197.97598 33.917774 
C 197.376949 33.696321 196.717567 33.638359 196.08164 33.751255 
C 195.445713 33.864151 194.861375 34.14291 194.402897 34.552101 
" style="fill:none;stroke:#ff0000;stroke-linecap:round;stroke-linejoin:miter;"/>
   </g>
   <g id="patch_6">
    <path clip-path="url(#p8c88d5c8a8)" d="M 194.171059 38.483498 
L 194.318039 38.973066 
L 194.719594 38.614677 
z
" style="fill:#ff0000;stroke:#ff0000;stroke-linejoin:miter;stroke-width:2;"/>
   </g>
   <g id="patch_7">
    <path clip-path="url(#p8c88d5c8a8)" d="M 49.18032 29.305685 
C 47.007248 29.305685 44.920957 30.076957 43.384364 31.448366 
C 41.84777 32.819776 40.9836 34.681791 40.9836 36.621257 
C 40.9836 38.560724 41.84777 40.422739 43.384364 41.794148 
C 44.920957 43.165558 47.007248 43.93683 49.18032 43.93683 
" style="fill:none;stroke:#000000;stroke-linejoin:miter;stroke-width:1.5;"/>
   </g>
   <g id="patch_8">
    <path clip-path="url(#p8c88d5c8a8)" d="M 196.72128 43.93683 
C 198.894352 43.93683 200.980643 43.165558 202.517236 41.794148 
C 204.05383 40.422739 204.918 38.560724 204.918 36.621257 
C 204.918 34.681791 204.05383 32.819776 202.517236 31.448366 
C 200.980643 30.076957 198.894352 29.305685 196.72128 29.305685 
" style="fill:none;stroke:#000000;stroke-linejoin:miter;stroke-width:1.5;"/>
   </g>
   <g id="patch_9">
    <path clip-path="url(#p8c88d5c8a8)" d="M 54.918024 36.621257 
C 54.918024 35.948787 54.769607 35.282855 54.481267 34.661573 
C 54.192927 34.040292 53.770272 33.475742 53.237489 33.000234 
C 52.704707 32.524725 52.072158 32.147505 51.376044 31.890162 
C 50.67993 31.632819 49.933788 31.500357 49.18032 31.500357 
C 48.426852 31.500357 47.68071 31.632819 46.984596 31.890162 
C 46.288482 32.147505 45.655933 32.524725 45.123151 33.000234 
C 44.590368 33.475742 44.167713 34.040292 43.879373 34.661573 
C 43.591033 35.282855 43.442616 35.948787 43.442616 36.621257 
C 43.442616 37.293728 43.591033 37.95966 43.879373 38.580941 
C 44.167713 39.202223 44.590368 39.766773 45.123151 40.242281 
C 45.655933 40.71779 46.288482 41.09501 46.984596 41.352353 
C 47.68071 41.609696 48.426852 41.742158 49.18032 41.742158 
C 49.933788 41.742158 50.67993 41.609696 51.376044 41.352353 
C 52.072158 41.09501 52.704707 40.71779 53.237489 40.242281 
C 53.770272 39.766773 54.192927 39.202223 54.481267 38.580941 
C 54.769607 37.95966 54.918024 37.293728 54.918024 36.621257 
" style="fill:none;stroke:#000000;stroke-linejoin:miter;stroke-width:1.5;"/>
   </g>
   <g id="patch_10">
    <path clip-path="url(#p8c88d5c8a8)" d="M 202.458984 36.621257 
C 202.458984 35.948787 202.310567 35.282855 202.022227 34.661573 
C 201.733887 34.040292 201.311232 33.475742 200.778449 33.000234 
C 200.245667 32.524725 199.613118 32.147505 198.917004 31.890162 
C 198.22089 31.632819 197.474748 31.500357 196.72128 31.500357 
C 195.967812 31.500357 195.22167 31.632819 194.525556 31.890162 
C 193.829442 32.147505 193.196893 32.524725 192.664111 33.000234 
C 192.131328 33.475742 191.708673 34.040292 191.420333 34.661573 
C 191.131993 35.282855 190.983576 35.948787 190.983576 36.621257 
C 190.983576 37.293728 191.131993 37.95966 191.420333 38.580941 
C 191.708673 39.202223 192.131328 39.766773 192.664111 40.242281 
C 193.196893 40.71779 193.829442 41.09501 194.525556 41.352353 
C 195.22167 41.609696 195.967812 41.742158 196.72128 41.742158 
C 197.474748 41.742158 198.22089 41.609696 198.917004 41.352353 
C 199.613118 41.09501 200.245667 40.71779 200.778449 40.242281 
C 201.311232 39.766773 201.733887 39.202223 202.022227 38.580941 
C 202.310567 37.95966 202.458984 37.293728 202.458984 36.621257 
" style="fill:none;stroke:#000000;stroke-linejoin:miter;stroke-width:1.5;"/>
   </g>
   <g id="matplotlib.axis_1"/>
   <g id="matplotlib.axis_2"/>
   <g id="line2d_9">
    <path clip-path="url(#p8c88d5c8a8)" d="M 49.18032 43.93683 
L 50.838084 43.93683 
L 52.495847 43.93683 
L 54.153611 43.93683 
L 55.811374 43.93683 
L 57.469138 43.93683 
L 59.126902 43.93683 
L 60.784665 43.93683 
L 62.442429 43.93683 
L 64.100192 43.93683 
L 65.757956 43.93683 
L 67.41572 43.93683 
L 69.073483 43.93683 
L 70.731247 43.93683 
L 72.38901 43.93683 
L 74.046774 43.93683 
L 75.704538 43.93683 
L 77.362301 43.93683 
L 79.020065 43.93683 
L 80.677828 43.93683 
L 82.335592 43.93683 
L 83.993356 43.93683 
L 85.651119 43.93683 
L 87.308883 43.93683 
L 88.966646 43.93683 
L 90.62441 43.93683 
L 92.282173 43.93683 
L 93.939937 43.93683 
L 95.597701 43.93683 
L 97.255464 43.93683 
L 98.913228 43.93683 
L 100.570991 43.93683 
L 102.228755 43.93683 
L 103.886519 43.93683 
L 105.544282 43.93683 
L 107.202046 43.93683 
L 108.859809 43.93683 
L 110.517573 43.93683 
L 112.175337 43.93683 
L 113.8331 43.93683 
L 115.490864 43.93683 
L 117.148627 43.93683 
L 118.806391 43.93683 
L 120.464155 43.93683 
L 122.121918 43.93683 
L 123.779682 43.93683 
L 125.437445 43.93683 
L 127.095209 43.93683 
L 128.752973 43.93683 
L 130.410736 43.93683 
L 132.0685 43.93683 
L 133.726263 43.93683 
L 135.384027 43.93683 
L 137.041791 43.93683 
L 138.699554 43.93683 
L 140.357318 43.93683 
L 142.015081 43.93683 
L 143.672845 43.93683 
L 145.330609 43.93683 
L 146.988372 43.93683 
L 148.646136 43.93683 
L 150.303899 43.93683 
L 151.961663 43.93683 
L 153.619427 43.93683 
L 155.27719 43.93683 
L 156.934954 43.93683 
L 158.592717 43.93683 
L 160.250481 43.93683 
L 161.908244 43.93683 
L 163.566008 43.93683 
L 165.223772 43.93683 
L 166.881535 43.93683 
L 168.539299 43.93683 
L 170.197062 43.93683 
L 171.854826 43.93683 
L 173.51259 43.93683 
L 175.170353 43.93683 
L 176.828117 43.93683 
L 178.48588 43.93683 
L 180.143644 43.93683 
L 181.801408 43.93683 
L 183.459171 43.93683 
L 185.116935 43.93683 
L 186.774698 43.93683 
L 188.432462 43.93683 
L 190.090226 43.93683 
L 191.747989 43.93683 
L 193.405753 43.93683 
L 195.063516 43.93683 
L 196.72128 43.93683 
" style="fill:none;stroke:#000000;stroke-linecap:square;stroke-width:1.5;"/>
   </g>
   <g id="line2d_10">
    <path clip-path="url(#p8c88d5c8a8)" d="M 49.18032 29.305685 
L 50.838084 29.305685 
L 52.495847 29.305685 
L 54.153611 29.305685 
L 55.811374 29.305685 
L 57.469138 29.305685 
L 59.126902 29.305685 
L 60.784665 29.305685 
L 62.442429 29.305685 
L 64.100192 29.305685 
L 65.757956 29.305685 
L 67.41572 29.305685 
L 69.073483 29.305685 
L 70.731247 29.305685 
L 72.38901 29.305685 
L 74.046774 29.305685 
L 75.704538 29.305685 
L 77.362301 29.305685 
L 79.020065 29.305685 
L 80.677828 29.305685 
L 82.335592 29.305685 
L 83.993356 29.305685 
L 85.651119 29.305685 
L 87.308883 29.305685 
L 88.966646 29.305685 
L 90.62441 29.305685 
L 92.282173 29.305685 
L 93.939937 29.305685 
L 95.597701 29.305685 
L 97.255464 29.305685 
L 98.913228 29.305685 
L 100.570991 29.305685 
L 102.228755 29.305685 
L 103.886519 29.305685 
L 105.544282 29.305685 
L 107.202046 29.305685 
L 108.859809 29.305685 
L 110.517573 29.305685 
L 112.175337 29.305685 
L 113.8331 29.305685 
L 115.490864 29.305685 
L 117.148627 29.305685 
L 118.806391 29.305685 
L 120.464155 29.305685 
L 122.121918 29.305685 
L 123.779682 29.305685 
L 125.437445 29.305685 
L 127.095209 29.305685 
L 128.752973 29.305685 
L 130.410736 29.305685 
L 132.0685 29.305685 
L 133.726263 29.305685 
L 135.384027 29.305685 
L 137.041791 29.305685 
L 138.699554 29.305685 
L 140.357318 29.305685 
L 142.015081 29.305685 
L 143.672845 29.305685 
L 145.330609 29.305685 
L 146.988372 29.305685 
L 148.646136 29.305685 
L 150.303899 29.305685 
L 151.961663 29.305685 
L 153.619427 29.305685 
L 155.27719 29.305685 
L 156.934954 29.305685 
L 158.592717 29.305685 
L 160.250481 29.305685 
L 161.908244 29.305685 
L 163.566008 29.305685 
L 165.223772 29.305685 
L 166.881535 29.305685 
L 168.539299 29.305685 
L 170.197062 29.305685 
L 171.854826 29.305685 
L 173.51259 29.305685 
L 175.170353 29.305685 
L 176.828117 29.305685 
L 178.48588 29.305685 
L 180.143644 29.305685 
L 181.801408 29.305685 
L 183.459171 29.305685 
L 185.116935 29.305685 
L 186.774698 29.305685 
L 188.432462 29.305685 
L 190.090226 29.305685 
L 191.747989 29.305685 
L 193.405753 29.305685 
L 195.063516 29.305685 
L 196.72128 29.305685 
" style="fill:none;stroke:#000000;stroke-linecap:square;stroke-width:1.5;"/>
   </g>
   <g id="patch_11">
    <path d="M 24.59016 108.486 
L 24.59016 5.207328 
" style="fill:none;"/>
   </g>
   <g id="patch_12">
    <path d="M 221.31144 108.486 
L 221.31144 5.207328 
" style="fill:none;"/>
   </g>
   <g id="patch_13">
    <path d="M 24.59016 108.486 
L 221.31144 108.486 
" style="fill:none;"/>
   </g>
   <g id="patch_14">
    <path d="M 24.59016 5.207328 
L 221.31144 5.207328 
" style="fill:none;"/>
   </g>
   <g id="PathCollection_1">
    <defs>
     <path d="M 0 2.738613 
C 0.726289 2.738613 1.422928 2.450055 1.936492 1.936492 
C 2.450055 1.422928 2.738613 0.726289 2.738613 0 
C 2.738613 -0.726289 2.450055 -1.422928 1.936492 -1.936492 
C 1.422928 -2.450055 0.726289 -2.738613 0 -2.738613 
C -0.726289 -2.738613 -1.422928 -2.450055 -1.936492 -1.936492 
C -2.450055 -1.422928 -2.738613 -0.726289 -2.738613 0 
C -2.738613 0.726289 -2.450055 1.422928 -1.936492 1.936492 
C -1.422928 2.450055 -0.726289 2.738613 0 2.738613 
z
" id="m27b42d3fd2" style="stroke:#ff0000;stroke-width:2;"/>
    </defs>
    <g clip-path="url(#p8c88d5c8a8)">
     <use style="fill:#ff0000;stroke:#ff0000;stroke-width:2;" x="46.201794" xlink:href="#m27b42d3fd2" y="99.647223"/>
    </g>
   </g>
   <g id="PathCollection_2">
    <g clip-path="url(#p8c88d5c8a8)">
     <use style="fill:#ff0000;stroke:#ff0000;stroke-width:2;" x="87.185394" xlink:href="#m27b42d3fd2" y="87.524215"/>
    </g>
   </g>
   <g id="PathCollection_3">
    <g clip-path="url(#p8c88d5c8a8)">
     <use style="fill:#ff0000;stroke:#ff0000;stroke-width:2;" x="128.168994" xlink:href="#m27b42d3fd2" y="83.336458"/>
    </g>
   </g>
   <g id="PathCollection_4">
    <g clip-path="url(#p8c88d5c8a8)">
     <use style="fill:#ff0000;stroke:#ff0000;stroke-width:2;" x="169.152594" xlink:href="#m27b42d3fd2" y="65.810902"/>
    </g>
   </g>
   <g id="PathCollection_5">
    <g clip-path="url(#p8c88d5c8a8)">
     <use style="fill:#ff0000;stroke:#ff0000;stroke-width:2;" x="199.699806" xlink:href="#m27b42d3fd2" y="62.961127"/>
    </g>
   </g>
   <g id="PathCollection_6">
    <g clip-path="url(#p8c88d5c8a8)">
     <use style="fill:#ff0000;stroke:#ff0000;stroke-width:2;" x="158.716206" xlink:href="#m27b42d3fd2" y="70.435393"/>
    </g>
   </g>
   <g id="PathCollection_7">
    <g clip-path="url(#p8c88d5c8a8)">
     <use style="fill:#ff0000;stroke:#ff0000;stroke-width:2;" x="117.732606" xlink:href="#m27b42d3fd2" y="85.844909"/>
    </g>
   </g>
   <g id="PathCollection_8">
    <g clip-path="url(#p8c88d5c8a8)">
     <use style="fill:#ff0000;stroke:#ff0000;stroke-width:2;" x="76.749006" xlink:href="#m27b42d3fd2" y="87.916626"/>
    </g>
   </g>
   <g id="patch_15">
    <path clip-path="url(#p8c88d5c8a8)" d="M 43.19944 24.774529 
L 44.884348 28.62995 
L 49.204148 27.126169 
L 47.51924 23.270748 
z
" style="fill:#ff0000;stroke:#ff0000;stroke-linejoin:miter;stroke-width:2;"/>
   </g>
   <g id="patch_16">
    <path clip-path="url(#p8c88d5c8a8)" d="M 84.867012 23.098216 
L 84.867012 27.236528 
L 89.503777 27.236528 
L 89.503777 23.098216 
z
" style="fill:#ff0000;stroke:#ff0000;stroke-linejoin:miter;stroke-width:2;"/>
   </g>
   <g id="patch_17">
    <path clip-path="url(#p8c88d5c8a8)" d="M 125.850612 23.098216 
L 125.850612 27.236528 
L 130.487377 27.236528 
L 130.487377 23.098216 
z
" style="fill:#ff0000;stroke:#ff0000;stroke-linejoin:miter;stroke-width:2;"/>
   </g>
   <g id="patch_18">
    <path clip-path="url(#p8c88d5c8a8)" d="M 166.834212 23.098216 
L 166.834212 27.236528 
L 171.470977 27.236528 
L 171.470977 23.098216 
z
" style="fill:#ff0000;stroke:#ff0000;stroke-linejoin:miter;stroke-width:2;"/>
   </g>
   <g id="patch_19">
    <path clip-path="url(#p8c88d5c8a8)" d="M 196.697452 46.616431 
L 198.38236 50.471853 
L 202.70216 48.968072 
L 201.017252 45.11265 
z
" style="fill:#ff0000;stroke:#ff0000;stroke-linejoin:miter;stroke-width:2;"/>
   </g>
   <g id="patch_20">
    <path clip-path="url(#p8c88d5c8a8)" d="M 156.397823 46.005986 
L 156.397823 50.144299 
L 161.034588 50.144299 
L 161.034588 46.005986 
z
" style="fill:#ff0000;stroke:#ff0000;stroke-linejoin:miter;stroke-width:2;"/>
   </g>
   <g id="patch_21">
    <path clip-path="url(#p8c88d5c8a8)" d="M 115.414223 46.005986 
L 115.414223 50.144299 
L 120.050988 50.144299 
L 120.050988 46.005986 
z
" style="fill:#ff0000;stroke:#ff0000;stroke-linejoin:miter;stroke-width:2;"/>
   </g>
   <g id="patch_22">
    <path clip-path="url(#p8c88d5c8a8)" d="M 74.430623 46.005986 
L 74.430623 50.144299 
L 79.067388 50.144299 
L 79.067388 46.005986 
z
" style="fill:#ff0000;stroke:#ff0000;stroke-linejoin:miter;stroke-width:2;"/>
   </g>
  </g>
 </g>
 <defs>
  <clipPath id="p8c88d5c8a8">
   <rect height="103.278672" width="196.72128" x="24.59016" y="5.207328"/>
  </clipPath>
 </defs>
</svg>
